<svg width="172" height="64" viewBox="0 0 172 64" fill="none" xmlns="http://www.w3.org/2000/svg">
<path d="M16.464 18.016C22.704 18.016 27.376 19.44 30.48 22.288C33.584 25.104 35.136 29.216 35.136 34.624C35.136 38.112 34.368 41.168 32.832 43.792C31.328 46.384 29.136 48.4 26.256 49.84C23.408 51.28 20 52 16.032 52L13.056 51.952C11.2 51.888 9.856 51.856 9.024 51.856C5.728 51.856 3.264 51.904 1.632 52V51.04C2.688 50.976 3.456 50.848 3.936 50.656C4.448 50.464 4.784 50.096 4.944 49.552C5.136 49.008 5.232 48.128 5.232 46.912V23.104C5.232 21.888 5.136 21.008 4.944 20.464C4.784 19.92 4.448 19.552 3.936 19.36C3.456 19.168 2.688 19.04 1.632 18.976V18.016C2.976 18.112 4.912 18.16 7.44 18.16H8.928L10.848 18.112C13.472 18.048 15.344 18.016 16.464 18.016ZM16.416 18.88C15.424 18.88 14.672 18.992 14.16 19.216C13.68 19.44 13.344 19.84 13.152 20.416C12.96 20.992 12.864 21.856 12.864 23.008V47.008C12.864 48.16 12.96 49.024 13.152 49.6C13.344 50.176 13.68 50.576 14.16 50.8C14.672 51.024 15.44 51.136 16.464 51.136C20.336 51.136 23.088 49.792 24.72 47.104C26.352 44.384 27.168 40.288 27.168 34.816C27.168 29.344 26.32 25.328 24.624 22.768C22.96 20.176 20.224 18.88 16.416 18.88ZM53.3078 18.976C52.2198 19.04 51.4358 19.168 50.9557 19.36C50.4758 19.552 50.1398 19.92 49.9478 20.464C49.7878 21.008 49.7078 21.888 49.7078 23.104V46.912C49.7078 48.128 49.7878 49.008 49.9478 49.552C50.1398 50.096 50.4758 50.464 50.9557 50.656C51.4358 50.848 52.2198 50.976 53.3078 51.04V52C51.5798 51.904 49.1638 51.856 46.0598 51.856C42.6358 51.856 40.1078 51.904 38.4758 52V51.04C39.5318 50.976 40.2998 50.848 40.7798 50.656C41.2918 50.464 41.6278 50.096 41.7878 49.552C41.9798 49.008 42.0758 48.128 42.0758 46.912V23.104C42.0758 21.888 41.9798 21.008 41.7878 20.464C41.6278 19.92 41.2918 19.552 40.7798 19.36C40.2998 19.168 39.5318 19.04 38.4758 18.976V18.016C40.1078 18.112 42.6358 18.16 46.0598 18.16C49.1638 18.16 51.5798 18.112 53.3078 18.016V18.976ZM117.456 17.344C119.44 17.344 121.104 17.616 122.448 18.16C123.824 18.704 125.168 19.472 126.48 20.464C126.864 20.752 127.184 20.896 127.44 20.896C127.76 20.896 128.016 20.672 128.208 20.224C128.4 19.744 128.544 19.008 128.64 18.016H129.744C129.616 20.192 129.552 24.064 129.552 29.632H128.448C128.192 27.456 127.808 25.696 127.296 24.352C126.816 23.008 126 21.872 124.848 20.944C124.08 20.208 123.136 19.632 122.016 19.216C120.896 18.8 119.744 18.592 118.56 18.592C116.32 18.592 114.448 19.36 112.944 20.896C111.472 22.4 110.384 24.4 109.68 26.896C108.976 29.392 108.624 32.128 108.624 35.104C108.624 46.176 111.696 51.712 117.84 51.712C119.248 51.712 120.384 51.392 121.248 50.752C121.664 50.464 121.952 50.128 122.112 49.744C122.304 49.36 122.4 48.864 122.4 48.256V43.552C122.4 42.048 122.272 40.96 122.016 40.288C121.76 39.584 121.296 39.104 120.624 38.848C119.984 38.592 118.96 38.432 117.552 38.368V37.408C119.536 37.504 122.272 37.552 125.76 37.552C128.608 37.552 130.752 37.504 132.192 37.408V38.368C131.552 38.432 131.088 38.56 130.8 38.752C130.512 38.944 130.304 39.312 130.176 39.856C130.08 40.4 130.032 41.28 130.032 42.496V52H129.072C129.04 51.328 128.896 50.704 128.64 50.128C128.416 49.552 128.096 49.264 127.68 49.264C127.136 49.264 126.272 49.6 125.088 50.272C122.304 51.872 119.68 52.672 117.216 52.672C111.68 52.672 107.44 51.168 104.496 48.16C101.552 45.12 100.08 40.864 100.08 35.392C100.08 31.808 100.816 28.656 102.288 25.936C103.792 23.216 105.856 21.104 108.48 19.6C111.104 18.096 114.096 17.344 117.456 17.344ZM152.369 17.344C155.761 17.344 158.721 18.032 161.249 19.408C163.809 20.784 165.793 22.784 167.201 25.408C168.609 28 169.313 31.104 169.313 34.72C169.313 38.24 168.593 41.36 167.153 44.08C165.713 46.8 163.697 48.912 161.105 50.416C158.545 51.92 155.617 52.672 152.321 52.672C148.929 52.672 145.953 51.984 143.393 50.608C140.865 49.232 138.897 47.248 137.489 44.656C136.081 42.032 135.377 38.912 135.377 35.296C135.377 31.776 136.097 28.656 137.537 25.936C138.977 23.216 140.977 21.104 143.537 19.6C146.129 18.096 149.073 17.344 152.369 17.344ZM152.177 18.208C150.417 18.208 148.865 18.928 147.521 20.368C146.177 21.776 145.137 23.76 144.401 26.32C143.697 28.88 143.345 31.808 143.345 35.104C143.345 38.432 143.745 41.36 144.545 43.888C145.377 46.416 146.481 48.368 147.857 49.744C149.265 51.12 150.817 51.808 152.513 51.808C154.273 51.808 155.825 51.104 157.169 49.696C158.513 48.256 159.537 46.256 160.241 43.696C160.977 41.136 161.345 38.208 161.345 34.912C161.345 31.584 160.929 28.656 160.097 26.128C159.297 23.6 158.193 21.648 156.785 20.272C155.409 18.896 153.873 18.208 152.177 18.208Z" fill="#020A12"/>
<path d="M97.2266 24.112C97.2266 26.48 96.3946 28.336 94.7306 29.68C93.0986 30.992 90.6826 31.984 87.4826 32.656L86.6186 32.944C88.0586 33.584 89.1626 34.608 89.9306 36.016C90.6986 37.424 91.0826 39.056 91.0826 40.912C91.0826 43.152 90.3946 45.168 89.0186 46.96C87.6426 48.72 85.6906 50.112 83.1626 51.136C80.6666 52.16 77.7866 52.672 74.5226 52.672C71.0026 52.672 67.8986 52.192 65.2106 51.232C62.5546 50.272 60.4906 48.896 59.0186 47.104C57.5786 45.28 56.8586 43.152 56.8586 40.72C56.8586 38.544 57.4346 36.72 58.5866 35.248C59.7386 33.744 61.0346 32.608 62.4746 31.84C63.9466 31.072 65.3226 30.528 66.6026 30.208C62.9866 28.768 61.1786 26.752 61.1786 24.16C61.1786 22.208 62.1226 20.688 64.0106 19.6C65.8986 18.48 68.1386 17.92 70.7306 17.92C71.9146 17.92 72.8906 18 73.6586 18.16C74.4266 18.32 75.1146 18.576 75.7226 18.928C76.5866 19.344 77.2906 19.872 77.8346 20.512C78.3786 21.152 78.6506 21.92 78.6506 22.816C78.6506 23.744 78.2826 24.512 77.5466 25.12C76.8426 25.696 75.9786 25.984 74.9546 25.984C73.9306 25.984 73.0826 25.728 72.4106 25.216C71.7706 24.704 71.4506 23.968 71.4506 23.008C71.4506 22.208 71.7386 21.488 72.3146 20.848C72.8906 20.176 73.6266 19.76 74.5226 19.6C74.2346 19.344 73.8026 19.136 73.2266 18.976C72.6506 18.816 72.0266 18.736 71.3546 18.736C69.5946 18.736 68.1546 19.28 67.0346 20.368C65.9146 21.456 65.3546 23.008 65.3546 25.024C65.3546 26.88 65.9786 28.512 67.2266 29.92C68.4106 29.664 69.3066 29.536 69.9146 29.536C70.4906 29.536 70.9226 29.664 71.2106 29.92C71.5306 30.144 71.6906 30.448 71.6906 30.832C71.6906 31.152 71.5626 31.408 71.3066 31.6C71.0506 31.76 70.7306 31.84 70.3466 31.84C69.8666 31.84 69.4026 31.728 68.9546 31.504C68.5066 31.28 67.9466 30.976 67.2746 30.592C65.6426 31.424 64.3786 32.464 63.4826 33.712C62.6186 34.928 62.1866 36.48 62.1866 38.368C62.1866 41.472 63.4186 43.808 65.8826 45.376C68.3786 46.912 71.8186 47.68 76.2026 47.68C78.4106 47.68 80.5226 47.36 82.5386 46.72C84.5866 46.048 86.2346 45.088 87.4826 43.84C88.7626 42.56 89.4026 41.056 89.4026 39.328C89.4026 36.384 88.1866 34.352 85.7546 33.232L82.6826 34.096C80.8906 34.608 79.9946 34.864 79.9946 34.864C77.3066 35.472 75.3386 36.112 74.0906 36.784C72.8426 37.456 72.2186 38.368 72.2186 39.52C72.2186 40.672 72.7466 41.616 73.8026 42.352C74.8906 43.056 76.0906 43.408 77.4026 43.408C77.7546 43.408 78.1226 43.36 78.5066 43.264C78.9226 43.168 79.1946 43.056 79.3226 42.928C78.5546 42.672 77.9626 42.272 77.5466 41.728C77.1306 41.184 76.9226 40.528 76.9226 39.76C76.9226 38.768 77.2746 38 77.9786 37.456C78.7146 36.88 79.6426 36.592 80.7626 36.592C81.9146 36.592 82.8106 36.896 83.4506 37.504C84.1226 38.08 84.4586 38.864 84.4586 39.856C84.4586 41.296 83.8186 42.384 82.5386 43.12C81.2586 43.856 79.6266 44.224 77.6426 44.224C75.5946 44.224 73.8826 43.696 72.5066 42.64C71.1626 41.584 70.4906 40.064 70.4906 38.08C70.4906 35.68 71.4026 33.776 73.2266 32.368C75.0506 30.96 77.7226 29.92 81.2426 29.248L83.3066 28.72C85.3866 28.24 87.0826 27.776 88.3946 27.328C90.8586 26.72 92.6826 26.064 93.8666 25.36C95.0506 24.624 95.6426 23.696 95.6426 22.576C95.6426 21.328 95.0826 20.288 93.9626 19.456C92.8746 18.624 91.6266 18.208 90.2186 18.208C89.6106 18.208 89.1466 18.288 88.8266 18.448C89.5626 18.736 90.1386 19.168 90.5546 19.744C90.9706 20.288 91.1786 20.864 91.1786 21.472C91.1786 22.432 90.8106 23.184 90.0746 23.728C89.3706 24.272 88.4586 24.544 87.3386 24.544C86.2186 24.544 85.3066 24.272 84.6026 23.728C83.9306 23.152 83.5946 22.368 83.5946 21.376C83.5946 20.128 84.1386 19.152 85.2266 18.448C86.3146 17.712 87.7706 17.344 89.5946 17.344C91.8986 17.344 93.7386 17.952 95.1146 19.168C96.5226 20.352 97.2266 22 97.2266 24.112Z" fill="#8A0606"/>
</svg>
